<svg id="Layer_1" data-name="Layer 1" xmlns="http://www.w3.org/2000/svg" viewBox="0 0 704.38 704.1"><defs><style>.cls-1{fill:#fff;}</style></defs><title>SigLogoPracticeC</title><path d="M863.91,488.53s.62,375.52,0,375.52H488.39l93.88-93.88H770V582.41H676.15l-93.88-93.88Z" transform="translate(-159.81 -159.95)"/><path d="M535.33,160.23s-375.52-.63-375.52,0V441.59L253.69,348V253.83H441.45v93.88l93.88,93.88Z" transform="translate(-159.81 -159.95)"/><path d="M442,759.3" transform="translate(-159.81 -159.95)"/><path class="cls-1" d="M817,300.77,515.4,516.18A39.19,39.19,0,0,1,464.92,512h0a39.19,39.19,0,0,1-4.18-50.48L676.15,160Z" transform="translate(-159.81 -159.95)"/><rect x="140.82" y="422.46" width="93.88" height="281.64"/><rect class="cls-1" x="214.81" y="496.58" width="265.53" height="265.53" rx="27.11" ry="27.11" transform="translate(-503.03 270.15) rotate(-45)"/><rect x="281.19" y="562.97" width="132.77" height="132.77" transform="translate(-503.03 270.15) rotate(-45)"/></svg>