<?xml version="1.0" standalone="no"?>
<!DOCTYPE svg PUBLIC "-//W3C//DTD SVG 20010904//EN"
 "http://www.w3.org/TR/2001/REC-SVG-20010904/DTD/svg10.dtd">
<svg version="1.0" xmlns="http://www.w3.org/2000/svg"
 width="706.000000pt" height="706.000000pt" viewBox="0 0 706.000000 706.000000"
 preserveAspectRatio="xMidYMid meet">
<metadata>
Created by potrace 1.11, written by Peter Selinger 2001-2013
</metadata>
<g transform="translate(0.000000,706.000000) scale(0.100000,-0.100000)"
fill="#000000" stroke="none">
<path d="M9 7038 c0 -16 0 -2744 0 -2778 1 -21 80 54 470 442 l470 468 0 442
c0 244 0 455 0 471 l1 27 935 0 c741 0 935 -3 936 -12 0 -7 1 -218 1 -468 l0
-455 294 -295 c280 -281 294 -296 279 -315 -9 -11 -78 -108 -155 -215 -76
-107 -161 -227 -189 -266 -82 -115 -104 -172 -104 -273 0 -102 24 -176 83
-249 103 -131 294 -181 449 -119 32 13 117 66 190 118 232 166 405 290 426
305 53 38 1543 1101 1562 1114 74 51 884 632 902 647 l21 18 -704 704 -704
704 -38 -54 c-133 -184 -290 -404 -793 -1109 -311 -434 -567 -790 -570 -790
-3 0 -6 439 -6 975 l0 975 -1877 0 c-1495 0 -1878 -3 -1879 -12z"/>
<path d="M1843 4119 c-24 -5 -60 -16 -80 -25 -55 -26 -1582 -1554 -1613 -1614
-36 -68 -37 -172 -4 -238 20 -39 166 -191 647 -674 l623 -623 -1 -467 0 -468
277 -1 c356 -1 646 -1 656 0 5 1 9 212 9 471 l0 469 612 613 c337 337 627 632
643 656 25 36 31 56 35 120 9 136 55 82 -823 960 -532 531 -795 788 -819 798
-54 22 -115 31 -162 23z"/>
<path d="M4245 3759 c-2 -3 204 -214 458 -469 l462 -463 470 -1 470 -1 3 -938
2 -937 -939 0 -939 0 -470 -470 -470 -470 266 -1 c357 0 2729 0 3155 0 l337 1
0 1875 c0 1031 -3 1876 -7 1876 -27 5 -2796 3 -2798 -2z"/>
</g>
</svg>
